<?xml version="1.0" encoding="utf-8"?>
<!-- Generator: Adobe Illustrator 18.0.0, SVG Export Plug-In . SVG Version: 6.00 Build 0)  -->
<!DOCTYPE svg PUBLIC "-//W3C//DTD SVG 1.1//EN" "http://www.w3.org/Graphics/SVG/1.1/DTD/svg11.dtd">
<svg version="1.1" id="Layer_1" xmlns="http://www.w3.org/2000/svg" xmlns:xlink="http://www.w3.org/1999/xlink" x="0px" y="0px"
	 viewBox="0 0 900 300" enable-background="new 0 0 900 300" xml:space="preserve">
<path fill="#11787C" d="M810.7,281.1H89.3c-18,0-32.7-14.6-32.7-32.7V51.5c0-18,14.6-32.7,32.7-32.7h721.4c18,0,32.7,14.6,32.7,32.7
	v196.9C843.4,266.5,828.7,281.1,810.7,281.1z"/>
<path fill="#FFFFFF" d="M285,125.6c3.5,2,7,4,10.5,6c3.5,2.1,7,4.1,10.5,6.3c1.2,0.7,2.4,1.4,3.6,2s2.3,1.3,3.4,2.2
	c-1.4,0.7-2.8,1.5-4.1,2.2c-1.4,0.8-2.7,1.6-4,2.4c-3.4-1.9-6.8-3.7-10.1-5.7c-3.3-1.9-6.6-3.8-9.9-5.7c-3.4,1.9-6.7,3.7-10,5.7
	c-3.3,1.9-6.7,3.8-10.2,5.7c0.5,0.4,1,0.7,1.5,1s1,0.6,1.5,0.8c3.5,2.1,7,4.2,10.5,6.1c3.5,2,7,4,10.5,6.1c3,1.8,6.1,3.5,9.1,5.1
	c3,1.7,6.1,3.4,9.2,5.3c0.9,0.6,1.9,1.1,2.9,1.7c1,0.6,2,1.2,2.9,1.7c-4.7,2.7-9.4,5.4-14,8.1c-4.7,2.7-9.3,5.4-14,8.1
	c-4.8-2.7-9.5-5.4-14.1-8.1c-4.6-2.7-9.3-5.4-14.1-8.1c1.3-0.9,2.7-1.8,4.1-2.5s2.9-1.5,4.2-2.4c3.2,2,6.5,3.9,9.9,5.8
	c3.3,1.9,6.7,3.8,10.1,5.8c1.9-1.2,3.7-2.3,5.7-3.4c1.9-1.1,3.8-2.2,5.7-3.4c-0.8-0.6-1.6-1.1-2.4-1.5s-1.6-0.9-2.4-1.5
	c-5.8-3.4-11.7-6.7-17.5-10s-11.7-6.7-17.5-10.2c0-1.6,0-3.3,0.1-4.9c0.1-1.6,0-3.1-0.1-4.6c4.8-2.8,9.5-5.5,14.3-8.3
	C275.4,131,280.2,128.3,285,125.6z"/>
<path fill="#FFFFFF" d="M375.2,140.9c-4.7,2.8-9.4,5.5-14.1,8.2s-9.4,5.4-14.2,8.2c-1.3-0.8-2.6-1.6-4-2.4c-1.4-0.8-2.7-1.6-4.1-2.4
	c3.2-2,6.5-3.9,9.9-5.8c3.3-1.9,6.6-3.8,9.9-5.8c-1.9-1.2-3.7-2.3-5.7-3.4c-1.9-1.1-3.8-2.1-5.7-3.1c-3.4,1.9-6.8,3.8-10.1,5.7
	c-3.3,2-6.7,3.9-10.1,5.9v22.9c3.4,2,6.8,3.9,10.1,5.8c3.3,1.9,6.6,3.8,9.9,5.8c3.4-2,6.7-3.9,10-5.8c3.2-1.9,6.6-3.8,10-5.8
	l8.3,4.9c-4.7,2.8-9.4,5.5-14.1,8.2s-9.4,5.4-14.2,8c-4.7-2.7-9.4-5.4-14.1-8.1c-4.7-2.7-9.4-5.4-14.2-8.1v-32.7
	c4-2.3,8-4.7,12.2-7.1c4.2-2.4,8.3-4.8,12.4-7.1c0.6-0.4,1.1-0.7,1.7-1.1s1.2-0.7,1.7-1c0.4-0.1,0.7,0,1.1,0.2s0.9,0.5,1.4,0.7
	c4.3,2.6,8.7,5.1,13.1,7.6C366.8,135.9,371.1,138.4,375.2,140.9z"/>
<path fill="#FFFFFF" d="M410.4,125.6c4.9,2.8,9.7,5.5,14.3,8.2c4.7,2.7,9.4,5.4,14.2,8.2v32.7l-8.3-4.9V147
	c-0.8-0.6-1.7-1.1-2.5-1.5c-0.9-0.4-1.7-0.9-2.5-1.5c-2.5-1.4-4.9-2.8-7.4-4.3s-4.9-2.9-7.4-4.3c-3.4,1.9-6.8,3.8-10.1,5.7
	c-3.3,2-6.7,3.9-10.1,5.9v19.9c0,0.5,0,1,0.1,1.6s0,1.1-0.1,1.4c0,0.1-0.3,0.3-0.8,0.6c-0.6,0.3-1,0.5-1.2,0.6c-1,0.7-2.1,1.4-3.1,2
	c-1.1,0.6-2.1,1.2-3.1,1.7v-25v-23.9c1.4,0.7,2.8,1.5,4.2,2.2c1.4,0.8,2.8,1.6,4.2,2.4v6.7c3.5-1.9,6.9-3.8,10.2-5.7
	C403.9,129.6,407.1,127.6,410.4,125.6z"/>
<path fill="#E9662B" d="M453.9,113.3v22.9c3.5-1.9,6.9-3.7,10.2-5.7c3.3-1.9,6.5-3.8,9.8-5.7c3.6,2,7.2,3.9,10.8,5.9
	c3.6,2,7.2,4,10.8,6.1l7,4.2v32.7c-1.2,0.7-2.4,1.4-3.5,2.1c-1.2,0.7-2.4,1.4-3.7,2.1c-3.5,2-7,4-10.5,6c-3.5,2.1-7,4.1-10.5,6.3
	c-4.8-2.8-9.5-5.5-14.3-8.2s-9.5-5.4-14.3-8.2v-33.6c0-5.4,0-10.7,0.1-16.1s0-10.5-0.1-15.4v-0.2
	C448.5,110.1,451.3,111.7,453.9,113.3z M474,134.4c-3.4,1.9-6.8,3.8-10.1,5.7c-3.3,2-6.7,3.9-10.1,5.9v22.9c3.4,2,6.8,3.9,10.1,5.8
	c3.3,1.9,6.6,3.8,9.9,5.8c3.4-1.9,6.8-3.8,10.1-5.7s6.7-3.9,10.1-5.9V146c-3.4-2-6.7-3.9-10-5.8C480.8,138.3,477.4,136.3,474,134.4z
	"/>
<path fill="#E9662B" d="M518.3,146.2v19.9c0,0.5,0,1-0.1,1.5s0,1,0.1,1.3c0.1,0.1,0.2,0.2,0.4,0.4s0.5,0.3,0.8,0.5s0.6,0.3,0.8,0.4
	c0.3,0.1,0.4,0.2,0.5,0.3c2.9,1.6,5.9,3.3,8.8,5c2.9,1.7,5.9,3.3,8.8,5c3.4-2,6.7-3.9,10-5.8c3.2-1.9,6.6-3.8,10-5.8V149
	c0-0.5,0-1-0.1-1.5c-0.1-0.6,0-1,0.1-1.2c0.1-0.3,0.4-0.5,0.8-0.7c0.5-0.2,0.9-0.4,1.2-0.7l6.3-3.5v30.4v2.1
	c-0.1,0.1-0.3,0.3-0.7,0.5s-0.7,0.4-0.9,0.7c-4.3,2.5-8.5,4.8-12.5,7.1s-8.2,4.7-12.5,7.3c-0.3,0.1-0.6,0.3-0.9,0.5
	c-0.4,0.3-0.6,0.4-0.7,0.4c-0.3,0-0.6-0.1-0.9-0.4c-0.4-0.3-0.7-0.4-0.9-0.5c-4.4-2.7-8.9-5.3-13.3-7.8c-4.5-2.5-8.9-5.1-13.3-7.7
	v-32.5c1.4,0.7,2.8,1.5,4.2,2.3C515.7,144.4,517,145.3,518.3,146.2z"/>
<path fill="#E9662B" d="M601.4,125.6c4.9,2.7,9.7,5.4,14.3,8.1c4.7,2.7,9.4,5.4,14.2,8.1v30.6c0,0.4,0,0.7,0.1,1.1
	c0.1,0.4,0,0.7-0.1,1s-0.5,0.5-1,0.8c-0.6,0.3-1,0.6-1.3,0.8c-2.9,1.6-5.8,3.3-8.7,5s-5.8,3.3-8.7,5v-9.5c1.9-1.3,3.7-2.4,5.7-3.4
	s3.8-2.1,5.7-3.3v-21.6V147c-0.1-0.1-0.2-0.2-0.4-0.4s-0.5-0.3-0.8-0.5s-0.6-0.3-0.8-0.4c-0.3-0.1-0.4-0.2-0.5-0.3
	c-2.9-1.8-5.8-3.5-8.7-5.1s-5.8-3.3-8.7-5.1c-3.4,2-6.8,3.9-10.1,5.9s-6.6,3.9-9.9,5.7c-0.3,7-0.3,14.1,0,21.6c0,0.3,0,0.5-0.1,0.8
	s0,0.5,0.1,0.6c0,0.1,0.1,0.2,0.3,0.4s0.4,0.3,0.7,0.5s0.5,0.3,0.8,0.4c0.3,0.1,0.4,0.2,0.5,0.3c2.9,1.8,5.9,3.5,8.8,5.1
	c2.9,1.6,5.8,3.3,8.6,5.1c0.1,1.5,0.1,3,0.1,4.6c-0.1,1.6-0.1,3.1-0.1,4.6c-0.2,0.2-0.4,0.1-0.7-0.2c-4.5-2.7-9.1-5.3-13.8-8
	c-4.6-2.6-9.2-5.2-13.6-7.8c-0.1-2.7-0.1-5.4-0.1-8.2s0-5.6,0-8.5c0-2.8,0-5.6,0-8.3s0-5.3-0.1-7.7c4.8-2.9,9.5-5.7,14.2-8.3
	C592.1,131.1,596.8,128.4,601.4,125.6z M610,153.5v0.2c0,3.6,0,7.1,0.1,10.4c0.1,3.3,0,6.6-0.1,9.8V186v10.2
	c-4.8,2.7-9.5,5.4-14.1,8.1c-4.6,2.7-9.3,5.4-14.1,8.1v-9.5c3.2-2,6.6-3.9,10-5.9s6.7-3.9,10-5.7v-32.7c1.4-0.9,2.8-1.8,4.2-2.5
	C607.2,155.2,608.6,154.4,610,153.5z"/>
<path fill="#FFFFFF" d="M685.3,114.3c2.5-1.6,5.3-3.2,8.3-4.9v0.2c-0.1,4.9-0.1,10-0.1,15.4c0.1,5.4,0.1,10.8,0.1,16.1v33.6
	c-4.8,2.8-9.5,5.5-14.3,8.2c-4.7,2.7-9.5,5.4-14.3,8.2c-3.5-2.1-7-4.2-10.5-6.3s-7-4.1-10.5-6c-1.3-0.7-2.5-1.4-3.7-2.1
	c-1.2-0.7-2.3-1.4-3.5-2.1v-32.7l7-4.2c3.6-2.1,7.2-4.2,10.8-6.1c3.6-2,7.2-4,10.8-5.9c3.2,1.9,6.5,3.7,9.8,5.7
	c3.3,1.9,6.7,3.8,10.2,5.7L685.3,114.3L685.3,114.3z M665.1,135.4c-3.4,2-6.7,3.9-10,5.8c-3.2,1.9-6.6,3.8-10,5.8v22.9
	c3.4,2,6.8,3.9,10.1,5.9s6.7,3.9,10.1,5.7c3.2-2,6.5-3.9,9.9-5.8c3.3-1.9,6.7-3.8,10.1-5.8V147c-3.4-2-6.8-3.9-10.1-5.9
	C671.9,139.1,668.5,137.2,665.1,135.4z"/>
<path fill="#FFFFFF" d="M756.8,140.9c-4.7,2.8-9.4,5.5-14.1,8.2c-4.7,2.7-9.4,5.4-14.2,8.2c-1.3-0.8-2.6-1.6-4-2.4
	c-1.4-0.8-2.7-1.6-4.1-2.4c3.2-2,6.5-3.9,9.9-5.8c3.3-1.9,6.6-3.8,9.9-5.8c-1.9-1.2-3.7-2.3-5.7-3.4c-1.9-1.1-3.8-2.1-5.7-3.1
	c-3.4,1.9-6.8,3.8-10.1,5.7c-3.3,2-6.7,3.9-10.1,5.9v22.9c3.4,2,6.8,3.9,10.1,5.8c3.3,1.9,6.6,3.8,9.9,5.8c3.4-2,6.7-3.9,10-5.8
	c3.2-1.9,6.6-3.8,10-5.8l8.3,4.9c-4.7,2.8-9.4,5.5-14.1,8.2c-4.7,2.7-9.4,5.4-14.2,8c-4.7-2.7-9.4-5.4-14.1-8.1
	c-4.7-2.7-9.4-5.4-14.2-8.1v-32.7c4-2.3,8-4.7,12.2-7.1c4.2-2.4,8.3-4.8,12.4-7.1c0.6-0.4,1.1-0.7,1.7-1.1c0.6-0.4,1.2-0.7,1.7-1
	c0.4-0.1,0.7,0,1.1,0.2c0.4,0.2,0.9,0.5,1.4,0.7c4.3,2.6,8.7,5.1,13.1,7.6C748.4,135.9,752.6,138.4,756.8,140.9z"/>
<path fill="#FFFFFF" d="M820.5,142.1v32.5c-1.2,0.8-2.4,1.5-3.5,2.2c-1.2,0.6-2.4,1.3-3.7,2c-3.5,2.1-7,4.2-10.5,6.3s-7,4.1-10.6,6
	c-4.8-2.7-9.5-5.4-14.3-8c-4.7-2.7-9.5-5.4-14.3-8.2c0-4.8,0-9.6,0.1-14.5s0.1-9.4,0.1-13.6c0-0.3,0-0.6-0.1-0.9
	c-0.1-0.3-0.1-0.7-0.1-1.2v-2.5c0.1-0.3,0.4-0.5,0.9-0.7s0.9-0.4,1.2-0.5c1-0.7,2.1-1.4,3.1-2c1.1-0.6,2.2-1.2,3.4-1.7
	c1.4,0.8,2.8,1.6,4.2,2.4c1.4,0.7,2.8,1.6,4.2,2.5c-1.5,0.8-2.9,1.6-4.4,2.4c-1.4,0.8-2.8,1.6-4.2,2.4v19.9c0,0.5,0,1-0.1,1.5
	c-0.1,0.6,0,1,0.1,1.2c0.1,0.1,0.2,0.2,0.4,0.4s0.5,0.3,0.8,0.5s0.6,0.3,0.8,0.4c0.3,0.1,0.4,0.2,0.5,0.3c2.9,1.8,5.9,3.5,8.8,5.1
	c2.9,1.6,5.8,3.3,8.6,5.1c3.4-2,6.8-3.9,10.2-5.8c3.4-1.9,6.7-3.8,10-5.8V147c-1.4-0.9-2.8-1.8-4.2-2.5s-2.8-1.5-4.2-2.4
	c1.3-0.9,2.7-1.8,4.1-2.6c1.4-0.8,2.9-1.6,4.2-2.3L820.5,142.1z"/>
<g>
	<path fill="#FFFFFF" d="M89.1,113.3v22.9c0.5-0.1,0.9-0.3,1.4-0.6c0.4-0.3,0.8-0.6,1.2-0.8c2.9-1.6,5.9-3.3,8.8-5s5.8-3.3,8.6-5
		c4.8,2.7,9.5,5.4,14.3,8.1c4.7,2.7,9.5,5.4,14.3,8.1v32.7c-0.3,0-0.5-0.1-0.6-0.2c-0.1-0.2-0.2-0.2-0.3-0.2
		c-1.3-0.7-2.5-1.4-3.8-2.1c-1.2-0.7-2.4-1.5-3.6-2.3V149c0-0.5,0-1,0.1-1.5c0.1-0.6,0-1-0.1-1.2c-0.1-0.4-0.5-0.7-1.1-0.9
		c-0.6-0.2-1.1-0.5-1.5-0.7c-2.9-1.6-5.8-3.3-8.7-5c-2.9-1.7-5.8-3.4-8.7-5.2c-3.4,2-6.8,3.9-10.1,5.8c-3.3,1.9-6.7,3.8-10.1,5.8
		V169c-1.3,0.8-2.7,1.6-4.1,2.4c-1.4,0.8-2.9,1.6-4.2,2.4v-33.6v-31.5v-0.2L89.1,113.3z"/>
	<path fill="#FFFFFF" d="M200.7,140.9c-4.7,2.8-9.4,5.5-14.1,8.2c-4.7,2.7-9.4,5.4-14.2,8.2c-1.3-0.8-2.6-1.6-4-2.4
		c-1.4-0.8-2.7-1.6-4.1-2.4c3.2-2,6.5-3.9,9.9-5.8c3.3-1.9,6.6-3.8,9.9-5.8c-1.9-1.2-3.7-2.3-5.7-3.4c-1.9-1.1-3.8-2.1-5.7-3.1
		c-3.4,1.9-6.8,3.8-10.1,5.7c-3.3,2-6.7,3.9-10.1,5.9v22.9c3.4,2,6.8,3.9,10.1,5.8c3.3,1.9,6.6,3.8,9.9,5.8c3.4-2,6.7-3.9,10-5.8
		c3.2-1.9,6.6-3.8,10-5.8l8.3,4.9c-4.7,2.8-9.4,5.5-14.1,8.2c-4.7,2.7-9.4,5.4-14.2,8c-4.7-2.7-9.4-5.4-14.1-8.1
		c-4.7-2.7-9.4-5.4-14.2-8.1v-32.7c4-2.3,8-4.7,12.2-7.1c4.2-2.4,8.3-4.8,12.4-7.1c0.6-0.4,1.1-0.7,1.7-1.1c0.6-0.4,1.2-0.7,1.7-1
		c0.4-0.1,0.7,0,1.1,0.2c0.4,0.2,0.9,0.5,1.4,0.7c4.3,2.6,8.7,5.1,13.1,7.6C192.3,135.9,196.5,138.4,200.7,140.9z"/>
</g>
<g id="Capa_x0020_1">
	<path fill="#00AC65" d="M231,117.1c3.2,2.1,6.4,4.3,10.7,6.4c4.3,3.2,5.4,2.1,5.4,7.5c0,4.3,0,8.6,0,12.9c0,5.4,0,5.4-4.3,7.5
		c-2.1,1.1-5.4,3.2-7.5,4.3V174h4.3h2.1v2.1v15c0,1.1-1.1,2.1-2.1,2.1c-1.1,0-2.1-1.1-2.1-2.1v-13.9h-4.3H231v-2.1v-7.5h-2.1v30
		c0,1.1-1.1,2.1-2.1,2.1c-1.1,0-2.1-1.1-2.1-2.1v-30h-2.1v7.5v2.1h-2.1H216v13.9c0,1.1-1.1,2.1-2.1,2.1s-2.1-1.1-2.1-2.1v-15V174
		h2.1h4.3v-18.2c-2.1-1.1-5.4-3.2-7.5-4.3c-5.4-3.2-4.3-2.1-4.3-8.6c0-4.3,0-7.5,0-11.8c0-5.4,1.1-6.4,5.4-8.6
		c3.2-2.1,6.4-3.2,9.7-5.4C225.6,115,226.7,113.9,231,117.1z M233.1,124.6l-7.5-4.3l-7.5,4.3l0,0l-7.5,4.3v8.6v8.6l7.5,4.3l0,0
		l7.5,4.3l7.5-4.3l0,0l7.5-4.3v-8.6v-8.6L233.1,124.6L233.1,124.6z"/>
</g>
<g>
	<path fill="#FFFFFF" d="M111,49.9V66c0,0.2-0.1,0.4-0.3,0.5l-10.8,5.3c-0.1,0.1-0.2,0.1-0.2,0.1H89.5v4.8c0,0.4-0.2,0.5-0.5,0.5
		h-5.4c-0.4,0-0.5-0.2-0.5-0.5V49.9c0-0.4,0.2-0.5,0.5-0.5h26.9C110.8,49.3,111,49.5,111,49.9z M98.2,65.5l6.3-3.1v-6.6h-15v9.7
		H98.2z"/>
	<path fill="#FFFFFF" d="M142.8,49.9v26.9c0,0.4-0.2,0.5-0.5,0.5h-26.9c-0.4,0-0.5-0.2-0.5-0.5V49.9c0-0.4,0.2-0.5,0.5-0.5h26.9
		C142.6,49.3,142.8,49.5,142.8,49.9z M136.3,70.9V55.8h-15.1v15.1H136.3z M132,60.6V66c0,0.4-0.2,0.5-0.5,0.5h-5.4
		c-0.4,0-0.5-0.2-0.5-0.5v-5.4c0-0.4,0.2-0.5,0.5-0.5h5.4C131.8,60.1,132,60.3,132,60.6z"/>
	<path fill="#FFFFFF" d="M174.6,49.9v26.9c0,0.4-0.2,0.5-0.5,0.5h-5.4c0,0-0.1,0-0.2-0.1l-7.9-3.9l-7.9,3.9
		c-0.1,0.1-0.2,0.1-0.2,0.1h-5.4c-0.4,0-0.5-0.2-0.5-0.5V49.9c0-0.4,0.2-0.5,0.5-0.5h5.4c0.4,0,0.5,0.2,0.5,0.5v20l4.3-2.2V55.3
		c0-0.4,0.2-0.5,0.5-0.5h5.4c0.4,0,0.5,0.2,0.5,0.5v12.5L168,70V50c0-0.4,0.2-0.5,0.5-0.5h5.4C174.4,49.3,174.6,49.5,174.6,49.9z"/>
	<path fill="#FFFFFF" d="M206.3,49.9v5.4c0,0.4-0.2,0.5-0.5,0.5h-21v4.3h21c0.4,0,0.5,0.2,0.5,0.5V66c0,0.4-0.2,0.5-0.5,0.5h-21v4.3
		h15.6c0.4,0,0.5,0.2,0.5,0.5v5.4c0,0.4-0.2,0.5-0.5,0.5h-21.5c-0.4,0-0.5-0.2-0.5-0.5V49.9c0-0.4,0.2-0.5,0.5-0.5h26.9
		C206.2,49.3,206.3,49.5,206.3,49.9z"/>
	<path fill="#FFFFFF" d="M238.1,49.9v11.5c0,0.2-0.1,0.4-0.3,0.4l-6.5,3.2l6.5,3.2c0.2,0.1,0.3,0.3,0.3,0.5v8.1
		c0,0.4-0.2,0.5-0.5,0.5h-5.4c-0.4,0-0.5-0.2-0.5-0.5v-4.4l-6.3-3.1h-8.8v7.5c0,0.4-0.2,0.5-0.5,0.5h-5.4c-0.4,0-0.5-0.2-0.5-0.5
		V49.9c0-0.4,0.2-0.5,0.5-0.5h26.9C237.9,49.3,238.1,49.5,238.1,49.9z M216.6,55.8v7h4.7l10.3-5.2v-1.8H216.6z"/>
	<path fill="#FFFFFF" d="M269.9,49.9v5.4c0,0.4-0.2,0.5-0.5,0.5h-21v4.3h21c0.4,0,0.5,0.2,0.5,0.5V66c0,0.4-0.2,0.5-0.5,0.5h-21v4.3
		H264c0.4,0,0.5,0.2,0.5,0.5v5.4c0,0.4-0.2,0.5-0.5,0.5h-21.5c-0.4,0-0.5-0.2-0.5-0.5V49.9c0-0.4,0.2-0.5,0.5-0.5h26.9
		C269.7,49.3,269.9,49.5,269.9,49.9z"/>
	<path fill="#FFFFFF" d="M301.7,49.9v21.5c0,0.2-0.1,0.4-0.3,0.5l-10.8,5.3c-0.1,0.1-0.2,0.1-0.2,0.1h-16.2c-0.4,0-0.5-0.2-0.5-0.5
		V49.9c0-0.4,0.2-0.5,0.5-0.5h26.9C301.5,49.3,301.7,49.5,301.7,49.9z M288.9,70.9l6.3-3.1v-12h-15.1v15.1H288.9z"/>
	<path fill="#FFFFFF" d="M359.5,60.6v16.2c0,0.4-0.2,0.5-0.5,0.5h-27c-0.4,0-0.5-0.2-0.5-0.5V49.9c0-0.4,0.2-0.5,0.5-0.5h21.5
		c0.4,0,0.5,0.2,0.5,0.5v10.2h4.8C359.3,60.1,359.5,60.3,359.5,60.6z M347.7,60.1v-4.3H338v4.3H347.7z M338,66.6v4.3h15v-4.3H338z"
		/>
	<path fill="#FFFFFF" d="M391.3,49.9v18.9c0,0.4-0.2,0.5-0.5,0.5h-10.2v7.5c0,0.4-0.2,0.5-0.5,0.5h-5.4c-0.4,0-0.5-0.2-0.5-0.5v-7.5
		H364c-0.4,0-0.5-0.2-0.5-0.5V49.9c0-0.4,0.2-0.5,0.5-0.5h5.4c0.4,0,0.5,0.2,0.5,0.5v12.9H385V49.9c0-0.4,0.2-0.5,0.5-0.5h5.4
		C391.1,49.3,391.3,49.5,391.3,49.9z"/>
</g>
</svg>
