<?xml version="1.0" encoding="utf-8"?>
<!-- Generator: Adobe Illustrator 18.0.0, SVG Export Plug-In . SVG Version: 6.00 Build 0)  -->
<!DOCTYPE svg PUBLIC "-//W3C//DTD SVG 1.1//EN" "http://www.w3.org/Graphics/SVG/1.1/DTD/svg11.dtd">
<svg version="1.1" id="Layer_1" xmlns="http://www.w3.org/2000/svg" xmlns:xlink="http://www.w3.org/1999/xlink" x="0px" y="0px"
	 viewBox="0 0 700 106.3" enable-background="new 0 0 700 106.3" xml:space="preserve">
<g>
	<path fill="#C02026" d="M185.8,16.2v14.4c0,1-0.5,1.4-1.4,1.4h-56.2v40.4h56.2c1,0,1.4,0.5,1.4,1.4v14.4c0,1-0.5,1.4-1.4,1.4h-72.1
		c-1,0-1.4-0.5-1.4-1.4V16.2c0-1,0.5-1.4,1.4-1.4h72.1C185.3,14.8,185.8,15.2,185.8,16.2z"/>
	<path fill="#C02026" d="M270.9,16.2v30.7c0,0.6-0.3,1-0.9,1.2l-17.3,8.6l17.3,8.6c0.6,0.3,0.9,0.7,0.9,1.3v21.6
		c0,1-0.5,1.4-1.4,1.4H255c-1,0-1.4-0.5-1.4-1.4V76.4l-16.9-8.4h-23.5v20.2c0,1-0.5,1.4-1.4,1.4h-14.4c-1,0-1.4-0.5-1.4-1.4V16.2
		c0-1,0.5-1.4,1.4-1.4h72.1C270.4,14.8,270.9,15.2,270.9,16.2z M213.2,32.1v18.7h12.7L253.6,37v-4.9H213.2z"/>
	<path fill="#C02026" d="M355.9,16.2v72.1c0,1-0.5,1.4-1.4,1.4H340c-1,0-1.4-0.5-1.4-1.4V68.1h-40.4v20.2c0,1-0.5,1.4-1.4,1.4h-14.4
		c-1,0-1.4-0.5-1.4-1.4V16.2c0-1,0.5-1.4,1.4-1.4h72.1C355.4,14.8,355.9,15.2,355.9,16.2z M338.6,50.8V32.1h-40.4v18.7H338.6z"/>
	<path fill="#C02026" d="M440.9,16.2v14.4c0,1-0.5,1.4-1.4,1.4h-56.2v18.7h56.2c1,0,1.4,0.5,1.4,1.4v14.4c0,1-0.5,1.4-1.4,1.4h-56.2
		v20.2c0,1-0.5,1.4-1.4,1.4h-14.4c-1,0-1.4-0.5-1.4-1.4V16.2c0-1,0.5-1.4,1.4-1.4h72.1C440.4,14.8,440.9,15.2,440.9,16.2z"/>
	<path fill="#C02026" d="M525.9,16.2v14.4c0,1-0.5,1.4-1.4,1.4h-20.2v56.2c0,1-0.5,1.4-1.4,1.4h-14.4c-1,0-1.4-0.5-1.4-1.4V32.1
		h-18.7v13c0,1-0.5,1.4-1.4,1.4h-14.4c-1,0-1.4-0.5-1.4-1.4V16.2c0-1,0.5-1.4,1.4-1.4h72.1C525.5,14.8,525.9,15.2,525.9,16.2z"/>
	<path fill="#C02026" d="M611,16.2v14.4c0,1-0.5,1.4-1.4,1.4h-56.2v11.5h56.2c1,0,1.4,0.5,1.4,1.4v14.4c0,1-0.5,1.4-1.4,1.4h-56.2
		v11.5h41.8c1,0,1.4,0.5,1.4,1.4v14.4c0,1-0.5,1.4-1.4,1.4h-57.6c-1,0-1.4-0.5-1.4-1.4V16.2c0-1,0.5-1.4,1.4-1.4h72.1
		C610.5,14.8,611,15.2,611,16.2z"/>
	<path fill="#C02026" d="M696,16.2v30.7c0,0.6-0.3,1-0.9,1.2l-17.3,8.6l17.3,8.6c0.6,0.3,0.9,0.7,0.9,1.3v21.6c0,1-0.5,1.4-1.4,1.4
		h-14.4c-1,0-1.4-0.5-1.4-1.4V76.4l-16.9-8.4h-23.5v20.2c0,1-0.5,1.4-1.4,1.4h-14.4c-1,0-1.4-0.5-1.4-1.4V16.2c0-1,0.5-1.4,1.4-1.4
		h72.1C695.5,14.8,696,15.2,696,16.2z M638.3,32.1v18.7H651L678.7,37v-4.9H638.3z"/>
</g>
<g>
	<rect fill="#C02026" width="30.1" height="30.1"/>
	<rect x="38.5" width="30.1" height="30.1"/>
	<rect x="76.9" width="30.1" height="30.1"/>
	<rect y="38.5" width="30.1" height="30.1"/>
	<rect x="38.5" y="38.5" fill="#C02026" width="30.1" height="30.1"/>
	<rect x="76.9" y="38.5" width="30.1" height="30.1"/>
	<rect y="76.9" fill="#C02026" width="30.1" height="30.1"/>
	<rect x="38.5" y="76.9" width="30.1" height="30.1"/>
	<rect x="76.9" y="76.9" width="30.1" height="30.1"/>
</g>
</svg>
