<?xml version="1.0" encoding="utf-8"?>
<!-- Generator: Adobe Illustrator 18.0.0, SVG Export Plug-In . SVG Version: 6.00 Build 0)  -->
<!DOCTYPE svg PUBLIC "-//W3C//DTD SVG 1.1//EN" "http://www.w3.org/Graphics/SVG/1.1/DTD/svg11.dtd">
<svg version="1.1" id="Layer_1" xmlns="http://www.w3.org/2000/svg" xmlns:xlink="http://www.w3.org/1999/xlink" x="0px" y="0px"
	 viewBox="0 0 640 480" enable-background="new 0 0 640 480" xml:space="preserve">
<g>
	<path fill="#FFFFFF" d="M169.9,206.2v13.2c0,0.9-0.5,1.3-1.3,1.3h-51.4v36.9h51.4c0.9,0,1.3,0.5,1.3,1.3V272c0,0.9-0.5,1.3-1.3,1.3
		h-65.9c-0.9,0-1.3-0.5-1.3-1.3v-65.8c0-0.9,0.5-1.3,1.3-1.3h65.9C169.4,204.9,169.9,205.3,169.9,206.2z"/>
	<path fill="#FFFFFF" d="M247.7,206.2v28.1c0,0.5-0.3,0.9-0.8,1.1l-15.8,7.9l15.8,7.9c0.5,0.3,0.8,0.6,0.8,1.2V272
		c0,0.9-0.5,1.3-1.3,1.3h-13.3c-0.9,0-1.3-0.5-1.3-1.3v-10.8l-15.5-7.7h-21.5V272c0,0.9-0.5,1.3-1.3,1.3h-13.2
		c-0.9,0-1.3-0.5-1.3-1.3v-65.8c0-0.9,0.5-1.3,1.3-1.3h65.9C247.2,204.9,247.7,205.3,247.7,206.2z M194.9,220.8v17.1h11.6l25.3-12.6
		v-4.5H194.9z"/>
	<path fill="#FFFFFF" d="M325.4,206.2v65.9c0,0.9-0.5,1.3-1.3,1.3h-13.3c-0.9,0-1.3-0.5-1.3-1.3v-18.5h-36.9v18.5
		c0,0.9-0.5,1.3-1.3,1.3h-13.2c-0.9,0-1.3-0.5-1.3-1.3v-65.9c0-0.9,0.5-1.3,1.3-1.3h65.9C324.9,204.9,325.4,205.3,325.4,206.2z
		 M309.6,237.9v-17.1h-36.9v17.1H309.6z"/>
	<path fill="#FFFFFF" d="M403.1,206.2v13.2c0,0.9-0.5,1.3-1.3,1.3h-51.4v17.1h51.4c0.9,0,1.3,0.5,1.3,1.3v13.2
		c0,0.9-0.5,1.3-1.3,1.3h-51.4V272c0,0.9-0.5,1.3-1.3,1.3H336c-0.9,0-1.3-0.5-1.3-1.3v-65.7c0-0.9,0.5-1.3,1.3-1.3h65.9
		C402.7,204.9,403.1,205.3,403.1,206.2z"/>
	<path fill="#FFFFFF" d="M480.8,206.2v13.2c0,0.9-0.5,1.3-1.3,1.3h-18.5V272c0,0.9-0.5,1.3-1.3,1.3h-13.2c-0.9,0-1.3-0.5-1.3-1.3
		v-51.3h-17.1v11.9c0,0.9-0.5,1.3-1.3,1.3h-13.2c-0.9,0-1.3-0.5-1.3-1.3v-26.4c0-0.9,0.5-1.3,1.3-1.3h65.9
		C480.5,204.9,480.8,205.3,480.8,206.2z"/>
	<path fill="#FFFFFF" d="M558.6,206.2v13.2c0,0.9-0.5,1.3-1.3,1.3H506v10.5h51.4c0.9,0,1.3,0.5,1.3,1.3v13.2c0,0.9-0.5,1.3-1.3,1.3
		H506v10.5h38.2c0.9,0,1.3,0.5,1.3,1.3v13.2c0,0.9-0.5,1.3-1.3,1.3h-52.7c-0.9,0-1.3-0.5-1.3-1.3v-65.6c0-0.9,0.5-1.3,1.3-1.3h65.9
		C558.2,204.9,558.6,205.3,558.6,206.2z"/>
	<path fill="#FFFFFF" d="M636.3,206.2v28.1c0,0.5-0.3,0.9-0.8,1.1l-15.8,7.9l15.8,7.9c0.5,0.3,0.8,0.6,0.8,1.2V272
		c0,0.9-0.5,1.3-1.3,1.3h-13.2c-0.9,0-1.3-0.5-1.3-1.3v-10.8l-15.5-7.7h-21.5V272c0,0.9-0.5,1.3-1.3,1.3h-13.2
		c-0.9,0-1.3-0.5-1.3-1.3v-65.8c0-0.9,0.5-1.3,1.3-1.3h65.9C635.9,204.9,636.3,205.3,636.3,206.2z M583.6,220.8v17.1h11.6l25.3-12.6
		v-4.5H583.6z"/>
</g>
<rect y="191.4" fill="#FFFFFF" width="27.5" height="27.5"/>
<rect x="35.2" y="191.4" width="27.5" height="27.5"/>
<rect x="70.3" y="191.4" width="27.5" height="27.5"/>
<rect y="226.6" width="27.5" height="27.5"/>
<rect x="35.2" y="226.6" fill="#FFFFFF" width="27.5" height="27.5"/>
<rect x="70.3" y="226.6" width="27.5" height="27.5"/>
<rect y="261.7" fill="#FFFFFF" width="27.5" height="27.5"/>
<rect x="35.2" y="261.7" width="27.5" height="27.5"/>
<rect x="70.3" y="261.7" width="27.5" height="27.5"/>
</svg>
